<?xml version="1.0" encoding="UTF-8"?>
<svg version="1.1" xmlns="http://www.w3.org/2000/svg" width="992" height="1199">
<path d="M0 0 C10.24626072 63.13101997 23.47460569 145.3276742 -15.9199224 200.58070423 C-28.58006347 217.7824269 -43.22947185 233.23423606 -58.37890625 248.23828125 C-59.47554632 249.32719344 -59.47554632 249.32719344 -60.59434074 250.43810385 C-79.43528478 269.1085583 -99.03766956 286.87520103 -118.96661508 304.37067688 C-130.49809807 314.50865376 -141.79595518 324.86742065 -152.9699707 335.39770508 C-153.7665277 336.1482455 -154.56308469 336.89878593 -155.38377977 337.67207 C-159.38373082 341.44322202 -163.38004202 345.21820487 -167.37445939 348.99521697 C-175.12921208 356.32615885 -182.90672586 363.63280536 -190.69554138 370.92753601 C-191.44708622 371.63142984 -192.19863105 372.33532367 -192.97294997 373.06054761 C-211.1629617 390.0816512 -229.67024011 406.7499879 -248.29376427 423.29467835 C-250.64545464 425.3844169 -252.99448012 427.47714033 -255.34353732 429.56983783 C-256.91945267 430.97050402 -258.50043188 432.36526262 -260.08203608 433.75949746 C-264.88828092 438.03464971 -269.40807235 442.32916081 -273.52644485 447.27709931 C-275.05484343 449.06412368 -276.67751679 450.68656754 -278.375 452.3125 C-282.99316483 456.8690893 -286.96376805 461.93049268 -291 467 C-291.86581756 468.07427344 -292.73170473 469.14849079 -293.59765625 470.22265625 C-304.4687089 483.79272887 -314.3656371 497.90498641 -323 513 C-323.38865234 513.67047363 -323.77730469 514.34094727 -324.17773438 515.03173828 C-350.61934156 560.75102285 -366.07765464 610.59889536 -372 663 C-372.1045752 663.89219238 -372.20915039 664.78438477 -372.31689453 665.70361328 C-373.39817679 676.42552306 -373.24390694 687.23531197 -373.25 698 C-373.25067474 699.07068726 -373.25134949 700.14137451 -373.25204468 701.24450684 C-373.23526673 718.02684517 -372.59996536 734.39195355 -370 751 C-369.75056641 752.67304199 -369.75056641 752.67304199 -369.49609375 754.37988281 C-364.29435197 788.62468285 -354.24038841 821.4734135 -340 853 C-339.63793457 853.80920898 -339.27586914 854.61841797 -338.90283203 855.45214844 C-324.13933574 888.27023953 -303.58078079 919.13502327 -279.1953125 945.59375 C-277.36570685 947.59915406 -275.59109476 949.63460994 -273.8203125 951.69140625 C-269.65277165 956.46367963 -265.23093038 960.96060973 -260.75 965.4375 C-259.49147217 966.69590698 -259.49147217 966.69590698 -258.20751953 967.97973633 C-253.10971584 973.03076666 -247.97033208 977.77897413 -242.3046875 982.1875 C-240.09168509 983.92789512 -238.05672266 985.76682515 -236 987.6875 C-186.96958179 1031.51114813 -121.04912855 1056.51366678 -57 1067 C-55.38279053 1067.26901123 -55.38279053 1067.26901123 -53.73291016 1067.54345703 C-20.32545163 1072.80896192 16.64617087 1072.40858644 50 1067 C51.0945752 1066.82839355 52.18915039 1066.65678711 53.31689453 1066.47998047 C93.87338252 1059.97349874 132.66747525 1047.15919021 169 1028 C169.7528125 1027.6076416 170.505625 1027.2152832 171.28125 1026.81103516 C195.74839484 1013.99656664 218.17914763 998.10257442 239 980 C239.70125 979.39929688 240.4025 978.79859375 241.125 978.1796875 C253.46328995 967.53791242 265.41010669 956.39640452 276 944 C276.89238203 942.98232945 277.78568697 941.96546778 278.6796875 940.94921875 C341.38175943 869.30304852 372.55137135 774.59139166 367.64038086 675.59941101 C364.12643385 625.13659014 350.36619078 575.78904759 327.00195312 530.93017578 C325.95153699 528.90664022 324.92095858 526.8736695 323.890625 524.83984375 C318.57138957 514.44661964 312.55607633 504.65587601 306 495 C305.52159668 494.29343262 305.04319336 493.58686523 304.55029297 492.85888672 C297.23407821 482.11816488 289.34980384 471.95329093 281 462 C280.47873535 461.37432129 279.9574707 460.74864258 279.42041016 460.10400391 C272.95253536 452.35431761 266.28746601 444.99725719 259 438 C263.51768406 432.58486346 268.3033668 427.55929816 273.30029297 422.58618164 C274.11071548 421.7756131 274.921138 420.96504456 275.75611877 420.12991333 C278.41577634 417.47094833 281.07895054 414.81553569 283.7421875 412.16015625 C285.59471113 410.30949913 287.44701304 408.45862003 289.29910278 406.60752869 C293.6636848 402.24604323 298.03080752 397.88711114 302.39886963 393.52911133 C307.37551106 388.56368329 312.34928177 383.5953839 317.32282424 378.62685215 C327.54537869 368.41472413 337.77149833 358.20617123 348 348 C356.60911654 352.03307921 362.90169024 360.8676801 369 368 C369.97669567 369.11430689 370.95468052 370.22748447 371.93359375 371.33984375 C379.25221283 379.67621858 386.2923476 388.16444861 393 397 C393.80606689 398.05912598 393.80606689 398.05912598 394.62841797 399.13964844 C403.66419037 411.06532123 412.05156664 423.3250291 420 436 C420.41056641 436.65387695 420.82113281 437.30775391 421.24414062 437.98144531 C449.99772772 484.09984778 470.72087236 535.09227703 483 588 C483.2273584 588.96099609 483.4547168 589.92199219 483.68896484 590.91210938 C486.66975998 603.6738433 488.79951362 616.53947682 490.6875 629.5 C490.84173431 630.54184448 490.84173431 630.54184448 490.99908447 631.60473633 C494.30783047 654.17451415 495.3806755 676.63998645 495.3125 699.4375 C495.30976578 701.34363068 495.30976578 701.34363068 495.30697632 703.28826904 C495.25940253 723.03588489 494.6609767 742.41521147 492 762 C491.82839355 763.30324219 491.65678711 764.60648438 491.47998047 765.94921875 C484.45265408 818.54005313 469.18395323 869.30706677 446 917 C445.56445801 917.90669434 445.12891602 918.81338867 444.68017578 919.74755859 C427.50004341 955.4486795 405.40626607 989.00620867 379.54296875 1019.01953125 C377.15215492 1021.82166788 374.85375914 1024.67888661 372.5625 1027.5625 C368.75032182 1032.25757044 364.62156923 1036.49491107 360.30981445 1040.72192383 C356.90646928 1044.0629827 353.73381644 1047.51468924 350.63671875 1051.13671875 C345.92403094 1056.50175953 340.72224795 1061.32545985 335.30859375 1065.96875 C332.99835758 1068.00144511 330.75645467 1070.09810593 328.5168457 1072.20800781 C322.44011305 1077.91516669 316.15163772 1083.18091377 309.5390625 1088.25390625 C307.2593396 1090.00491691 305.02979502 1091.79500513 302.8359375 1093.65234375 C236.3395185 1149.52207182 148.12131528 1182.59881297 56 1194 C55.03191406 1194.11182617 54.06382812 1194.22365234 53.06640625 1194.33886719 C-33.8490726 1203.99952876 -124.36180106 1189.09082882 -214 1148 C-214.92989746 1147.56333008 -215.85979492 1147.12666016 -216.81787109 1146.67675781 C-254.25427486 1128.94631456 -288.8083373 1105.48433223 -320.16845703 1078.52807617 C-321.49743623 1077.41929441 -322.85091254 1076.33966715 -324.21826172 1075.27856445 C-332.9214548 1068.44034132 -340.61369438 1060.65486087 -348.39892578 1052.80688477 C-350.75367514 1050.43379624 -353.11641141 1048.06889069 -355.48046875 1045.70507812 C-357.00307761 1044.17755511 -358.52522896 1042.64957588 -360.046875 1041.12109375 C-360.74182068 1040.42503525 -361.43676636 1039.72897675 -362.152771 1039.01182556 C-366.62612586 1034.49553457 -370.86047078 1029.82290397 -375 1025 C-375.845625 1024.03578125 -376.69125 1023.0715625 -377.5625 1022.078125 C-385.8783185 1012.42964328 -393.46178151 1002.2620766 -401 992 C-401.48388184 991.34322266 -401.96776367 990.68644531 -402.46630859 990.00976562 C-452.11868258 922.39335644 -482.61486878 842.04301824 -493 759 C-493.0825 758.34288025 -493.165 757.6857605 -493.25 757.00872803 C-503.70911882 672.19699942 -491.16972381 583.14162924 -410 418 C-409.59620117 417.42040527 -409.19240234 416.84081055 -408.77636719 416.24365234 C-400.05088129 403.74709713 -390.77840642 391.69261322 -381 380 C-380.33943604 379.20988525 -380.33943604 379.20988525 -379.66552734 378.40380859 C-367.18181076 363.52321843 -353.74767512 349.59762863 -340.01803589 335.87086487 C-338.56079668 334.4103159 -337.10376674 332.94955811 -335.64692509 331.48861259 C-331.68654338 327.51833244 -327.72312538 323.55109615 -323.75912809 319.58442628 C-319.46849791 315.28985747 -315.1806884 310.99247377 -310.8924408 306.69552612 C-301.05675994 296.84112657 -291.21685826 286.99094847 -281.37604769 277.14167233 C-276.5097351 272.27113878 -271.64392205 267.40010631 -266.7781213 262.52906142 C-250.10871185 245.84179001 -233.43787201 229.1559488 -216.76325798 212.47387791 C-215.7196881 211.42983329 -214.6761188 210.38578809 -213.63255007 209.34174233 C-213.11507951 208.82403539 -212.59760894 208.30632846 -212.06445746 207.77293343 C-209.4430303 205.15030516 -206.82161033 202.5276697 -204.20019531 199.9050293 C-203.67998897 199.38458281 -203.15978263 198.86413632 -202.62381246 198.32791872 C-185.71450923 181.41070256 -168.81301053 164.4857167 -151.91597252 147.55625056 C-134.03074046 129.6367566 -116.13825916 111.72453231 -98.23753655 93.82051224 C-96.27508062 91.85763877 -94.3126557 89.8947343 -92.35025406 87.93180656 C-91.86708894 87.44851825 -91.38392382 86.96522994 -90.88611733 86.46729652 C-83.10343928 78.68228423 -75.32744936 70.89062441 -67.55384363 63.09655429 C-59.75503125 55.27753548 -51.94874399 47.46602995 -44.13522403 39.66170532 C-39.90077335 35.43182009 -35.66969033 31.19869951 -31.44717598 26.95689583 C-27.58742646 23.07966531 -23.71868994 19.21165214 -19.84237148 15.35098862 C-18.43679984 13.94781586 -17.03465127 12.5412047 -15.63617335 11.13096184 C-13.74473681 9.22459353 -11.84157477 7.3307871 -9.93478203 5.4397974 C-9.3861667 4.88095986 -8.83755137 4.32212233 -8.27231133 3.74635032 C-4.45658895 0 -4.45658895 0 0 0 Z " fill="#EE4B2B" transform="translate(497,0)"/>
<path d="M0 0 C17.55203581 -0.59542304 34.16077809 5.5923049 47.41796875 17.05078125 C60.28100843 29.56617121 67.58573247 45.81604895 68.58203125 63.70703125 C68.60338175 82.58087072 61.83914007 99.12312821 49.00390625 112.83984375 C35.41737524 125.87764572 18.11462296 131.6310376 -0.46484375 131.43359375 C-17.83619342 130.23082968 -32.12306652 123.5819075 -44.4140625 111.16015625 C-45.03796875 110.56976563 -45.661875 109.979375 -46.3046875 109.37109375 C-57.92174317 97.49239268 -62.95518825 80.30622315 -62.83422852 64.08569336 C-62.24281272 46.06924104 -55.26056983 30.84945108 -42.4140625 18.16015625 C-41.80046875 17.52464844 -41.186875 16.88914063 -40.5546875 16.234375 C-29.84261864 5.91141975 -14.55748211 0.96578765 0 0 Z " fill="#EE4C2B" transform="translate(668.4140625,196.83984375)"/>
</svg>
