<?xml version="1.0" encoding="utf-8"?>
<!-- Generator: Adobe Illustrator 28.1.0, SVG Export Plug-In . SVG Version: 6.00 Build 0)  -->
<svg version="1.1" id="Layer_1" xmlns="http://www.w3.org/2000/svg" xmlns:xlink="http://www.w3.org/1999/xlink" x="0px" y="0px"
	 viewBox="0 0 302.2 63.4" style="enable-background:new 0 0 302.2 63.4;" xml:space="preserve">
<style type="text/css">
	.st0{fill:#FFFFFF;}
	.st1{fill:#EE4242;}
</style>
<g>
	<g>
		<g>
			<path class="st0" d="M87.1,8.9c-1.1,1-1.4,1.7-1.3,2.5c0.3,5.4,0.6,10.7,1.1,16.3c0.1-0.4,0.4-0.8,0.6-1.3
				c2.2-5.4,4.4-11,6.7-16.4c0.4-1,0.8-1.3,1.9-1.3c3.2,0,7.4,0.1,10.3,0.1c-1.9,1-2.5,2.1-3.1,3.3c-4.4,10-8.8,19.9-13.1,29.9
				c-0.6,1.3-1.1,1.5-2.4,1.5c-2.8-0.1-5.7,0-8.8,0c-0.4-7.1-0.8-14.2-1.3-21.3c-0.1,0-0.1,0-0.3-0.1c-0.3,0.4-0.4,0.8-0.7,1.3
				c-3.2,6.4-6.4,12.7-9.5,19c-0.4,0.8-0.8,1.1-1.8,1.1c-2.6,0-5.3,0-8.1,0c-0.4,0-0.8,0-1.3-0.1c0-11.5,0-23.1,0-34.6
				c3.6,0,7.2,0,11.1,0c-1.4,1-1.1,2.2-1.3,3.6c-0.1,5-0.3,10-0.3,15.2c0.1-0.3,0.4-0.6,0.6-1c2.8-5.6,5.6-11.1,8.3-16.8
				c0.4-0.8,0.8-1.3,1.8-1.1C79.8,8.9,83.9,8.9,87.1,8.9z"/>
			<path class="st1" d="M221.3,43.5c0.3-0.6,0.6-1,0.7-1.4c6.4-10.7,12.7-21.4,19-32c0.4-0.7,1-1.1,1.8-1.1c3.8,0,8.2,0,12.1,0
				c-1.9,1-1.1,3.6-0.8,5.4c1.4,9.6,2.9,19,4.4,28.6c0,0.1,0,0.1-0.1,0.4c-3.5,0-7.1,0-10.8,0c-0.1-1.4-0.3-2.8-0.3-4.2
				c0-1-0.4-1.4-1.5-1.4c-3.3,0-6.5,0-9.9,0c-0.8,0-1.4,0.3-1.7,1.1c0,0.1-0.1,0.1-0.1,0.3c-0.8,1.4-1.3,3.5-2.5,4.2
				c-1.3,0.7-3.2,0.3-4.9,0.3C225,43.5,223.3,43.5,221.3,43.5z M245.5,18.2c-0.1,0-0.3,0-0.4,0c-2.1,4-4.2,8.1-6.5,12.4
				c2.5,0,4.6,0,6.7,0c1,0,1.3-0.3,1.3-1.3c-0.3-2.6-0.4-5.3-0.7-7.9C245.7,20.3,245.7,19.2,245.5,18.2z"/>
			<path class="st0" d="M133.6,17.4c-3.8,0-7.2,0-11,0c0.6-2.8,1.1-5.4,1.8-8.1c0.1-0.3,0.8-0.6,1.3-0.6c4,0,8.1,0,12.1,0
				c6.7,0,14,0.1,20.9,0.1c-2.4,1-2.4,4-3.1,6.5c-0.1,0.6-0.3,1.3-0.4,1.9c-3.6,0-7.2,0-10.8,0c-1,4.3-1.8,8.3-2.8,12.5
				c-1,4.2-1.8,8.3-2.8,12.5c-0.1,0.4-0.6,1.1-0.8,1.1c-3.2,0.1-6.5,0-10,0C129.9,34.9,131.7,26.3,133.6,17.4z"/>
			<path class="st1" d="M204.9,21.9c5.6,0,11,0,16.5,0c-0.6,2.2-1,4.3-1.4,6.4c0,0.3-0.8,0.4-1.3,0.4c-4.7,0-9.5,0-14.2,0
				c-1.1,0-1.5,0.3-1.7,1.4c-0.3,1.8-0.8,3.6-1.3,5.7c6.3,0,12.2,0,18.5,0c-0.6,2.5-1,4.7-1.5,7c-0.1,0.3-0.8,0.7-1.4,0.7
				c-4.3,0-8.6,0-13.1,0c-4.3,0-8.6,0-13.1,0c-0.6,0-1,0-1.7,0c0.4-1.9,0.8-3.8,1.1-5.4c1.3-5.7,2.5-11.3,3.8-17
				c0.1-0.8,0.4-1.1,1.3-1.3c3.2-0.4,6.4-1,9.7-1.5C205.4,19.4,205.2,20.6,204.9,21.9z"/>
			<path class="st1" d="M262.4,43.5c0.7-3.1,1.3-6,1.9-8.8c1.8-8.1,3.6-16.1,5.3-24.2c0.3-1.1,0.6-1.5,1.8-1.5
				c3.1,0.1,7.5,0.1,10.4,0.1c-1.7,0.1-5.1,17.2-7.1,26c5.7,0,11.1,0,16.8,0c-0.6,2.8-1.1,5.3-1.8,7.8c-0.1,0.3-0.8,0.6-1.4,0.6
				c-6.7,0-13.3,0-20,0C266.2,43.5,264.4,43.5,262.4,43.5z"/>
			<path class="st1" d="M166.4,36.3c6.5,0,13.1,0,19.7,0c-0.6,2.4-1,4.6-1.5,6.7c0,0.3-0.8,0.4-1.4,0.4c-8.3,0-16.7,0-25.2,0
				c-2.1,0-4,0-6.3,0c0.6-2.4,1-4.6,1.5-6.8c0.1-0.3,0.4-0.6,0.7-0.8c4.3-3.6,8.5-7.2,12.8-10.8c0.6-0.4,1.4-0.7,2.1-0.8
				c4.3-0.7,8.6-1.4,13.1-1.8c-5.3,4.4-10.6,9-15.8,13.5C166.3,36,166.3,36.1,166.4,36.3z"/>
			<path class="st0" d="M121.1,9c-1.9,0.7-2.1,1.8-2.4,2.8c-2.2,10.1-4.6,20.4-6.8,30.7c-0.1,0.4-0.3,0.8-0.3,1.1c-3.5,0-7,0-10.6,0
				c0.7-3.1,1.3-6,1.9-8.9c1.8-8.1,3.6-16.1,5.3-24.2c0.3-1.3,0.7-1.7,1.9-1.5C113.5,8.9,117.9,9,121.1,9z"/>
			<path class="st1" d="M193.1,8.9c-2.1,0.8-2.1,2.2-2.4,3.3c-0.8,3.9-0.8,3.9-4.7,3.9c-8.1,0-16.1,0-24.3,0c-0.6,0-1.1-0.1-1.9-0.1
				c0.6-2.2,1-4.3,1.5-6.4c0.1-0.3,0.8-0.6,1.3-0.6c4.7,0,9.5,0,14.2,0C181.7,9,188.3,8.9,193.1,8.9z"/>
			<path class="st1" d="M227.5,8.9c-2.1,0.7-2.2,2.5-2.5,3.8c-1.1,4,0.1,3.5-4.2,3.5c-7.6,0-15.4,0-23.1,0c-0.6,0-1.1,0-1.9-0.1
				c0.6-2.2,1-4.4,1.5-6.5c0.1-0.3,0.8-0.4,1.4-0.4c7.6,0,15.4,0,23.1,0C223.2,9,226.1,8.9,227.5,8.9z"/>
			<g>
				<path class="st0" d="M62,61c0,0.1,0.1,0.3,0.4,0.3v0.3h-2.8v-0.3c0.1,0,0.1,0,0.3-0.1c0,0,0.1-0.1,0.1-0.3v-6.7h-2.9
					c-0.1,0-0.3,0-0.3,0.1c-0.1,0-0.1,0.1-0.1,0.3h-0.6v-2.4h0.3c0,0.1,0,0.3,0.1,0.3s0.1,0.1,0.3,0.1h8.1c0.1,0,0.3,0,0.3-0.1
					c0.1,0,0.1-0.1,0.1-0.3h0.3v2.4h-0.3c0-0.1,0-0.3-0.1-0.3s-0.1-0.1-0.3-0.1H62V61z"/>
				<path class="st0" d="M77,54.5c0-0.1,0-0.3-0.1-0.3s-0.3-0.1-0.6-0.1h-5.8v2.1H74c0.3,0,0.4,0,0.6-0.1c0.1,0,0.1-0.3,0.1-0.6H75
					v2.6h-0.3c0-0.3,0-0.4-0.1-0.6c-0.1-0.1-0.3-0.1-0.6-0.1h-3.5v2.4h6c0.1,0,0.3,0,0.4-0.1c0.1,0.3,0.1,0.1,0.1,0h0.3V62H77
					c0-0.1,0-0.3-0.1-0.3s-0.3,0-0.4,0h-8.3v-0.3c0.1,0,0.1,0,0.3-0.1c0,0,0.1-0.1,0.1-0.3v-7.8c0-0.1,0-0.1-0.1-0.3
					c0,0-0.1-0.1-0.3-0.1v-0.3h8.2c0.3,0,0.4,0,0.6-0.1s0.1-0.1,0.1-0.3h0.3v2.2H77V54.5z"/>
				<path class="st0" d="M90.1,60.3L90.1,60.3c-0.1,0-0.1,0-0.1,0c-0.1,0-0.3,0.1-0.6,0.1c-0.3,0.1-0.6,0.3-1,0.4
					c-0.4,0.1-0.8,0.3-1.4,0.4c-0.6,0.1-1.1,0.1-1.7,0.1c-0.7,0-1.5-0.1-2.2-0.3c-0.7-0.1-1.3-0.4-1.8-0.8c-0.6-0.4-1-0.8-1.3-1.4
					c-0.3-0.6-0.4-1.3-0.4-1.9s0.1-1.4,0.4-1.9c0.3-0.6,0.7-1.1,1.3-1.4c0.6-0.4,1.1-0.7,1.8-0.8c0.7-0.1,1.4-0.3,2.2-0.3
					c0.6,0,1.1,0,1.7,0.1c0.6,0.1,1,0.1,1.3,0.3c0.4,0.1,0.7,0.1,0.8,0.3c0.3,0.1,0.4,0.1,0.4,0.1s0.1,0,0.1-0.1l0.1-0.1l0.3,0.1
					l-1.4,2.1l-0.1-0.1V55v-0.1c0-0.1-0.1-0.3-0.4-0.4s-0.4-0.3-0.8-0.4c-0.3-0.1-0.7-0.1-1-0.3c-0.4,0-0.7-0.1-1-0.1
					c-0.6,0-1,0.1-1.4,0.1c-0.4,0.1-0.8,0.3-1.3,0.6c-0.3,0.3-0.6,0.6-0.8,1c-0.1,0.4-0.3,0.8-0.3,1.3c0,0.6,0.1,1,0.3,1.3
					c0.1,0.4,0.4,0.7,0.8,1c0.3,0.3,0.7,0.4,1.3,0.6c0.4,0.1,1,0.1,1.4,0.1c0.4,0,0.8,0,1.3-0.1c0.4-0.1,0.8-0.1,1.1-0.3
					c0.4-0.1,0.7-0.3,0.8-0.4c0.3-0.1,0.4-0.3,0.4-0.4s0-0.1-0.1-0.1l0.3-0.1l1.3,1.8L90.1,60.3z"/>
				<path class="st0" d="M101.5,53.2c0-0.1-0.1-0.3-0.4-0.3v-0.3h2.8v0.3c-0.1,0-0.1,0-0.3,0.1c0,0-0.1,0.1-0.1,0.3v7.8
					c0,0.1,0,0.1,0.1,0.3c0,0,0.1,0.1,0.3,0.1v0.3h-2.8v-0.3c0.3,0,0.4-0.1,0.4-0.3v-3.2h-5.8v3.2c0,0.1,0,0.1,0.1,0.3
					c0,0,0.1,0.1,0.3,0.1V62h-2.8v-0.3c0.3,0,0.3-0.1,0.3-0.3v-7.8c0-0.1-0.1-0.3-0.3-0.3v-0.3h2.8v0.3c-0.1,0-0.1,0-0.3,0.1
					c0,0-0.1,0.1-0.1,0.3v2.9h5.8V53.2z"/>
				<path class="st0" d="M107.2,61.3c0.3,0,0.3-0.1,0.3-0.3v-7.8c0-0.1-0.1-0.3-0.3-0.3v-0.3h3.1v0.3c-0.1,0-0.1,0-0.1,0.1
					s0.1,0.3,0.4,0.4l5.1,5.1v-5.4c0-0.1-0.1-0.3-0.4-0.3v-0.3h2.8v0.3c-0.3,0-0.3,0.1-0.3,0.3V61c0,0.1,0.1,0.3,0.3,0.3v0.3h-2.9
					v-0.3c0.1,0,0.3,0,0.3-0.1s-0.1-0.3-0.3-0.4l-5.6-5.4V61c0,0.1,0.1,0.3,0.4,0.3v0.3h-2.6v-0.3H107.2z"/>
				<path class="st0" d="M126.7,52.5c0.7,0,1.4,0.1,2.1,0.3c0.7,0.1,1.3,0.4,1.8,0.8c0.6,0.4,1,0.8,1.4,1.4c0.4,0.6,0.6,1.3,0.6,2.1
					s-0.1,1.5-0.6,2.1c-0.4,0.6-0.8,1.1-1.4,1.4c-0.6,0.4-1.3,0.7-1.8,0.8c-0.7,0.1-1.4,0.3-2.1,0.3c-0.7,0-1.4-0.1-2.1-0.3
					c-0.7-0.1-1.3-0.4-1.8-0.8c-0.6-0.4-1-0.8-1.4-1.4c-0.4-0.6-0.6-1.3-0.6-2.1s0.1-1.5,0.6-2.1c0.4-0.6,0.8-1.1,1.4-1.4
					c0.6-0.4,1.3-0.7,1.8-0.8C125.3,52.5,126,52.5,126.7,52.5z M126.7,54.1c-0.4,0-1,0.1-1.4,0.1c-0.4,0.1-0.8,0.3-1.3,0.6
					c-0.4,0.3-0.7,0.6-0.8,1c-0.3,0.4-0.3,0.8-0.3,1.3c0,0.4,0.1,1,0.3,1.3c0.3,0.4,0.6,0.7,0.8,1c0.4,0.3,0.8,0.4,1.3,0.6
					c0.4,0.1,1,0.1,1.4,0.1c0.4,0,1-0.1,1.4-0.1c0.4-0.1,0.8-0.3,1.3-0.6c0.4-0.3,0.7-0.6,0.8-1c0.3-0.4,0.3-0.8,0.3-1.3
					c0-0.4-0.1-1-0.3-1.3c-0.3-0.4-0.6-0.7-0.8-1c-0.4-0.3-0.8-0.4-1.3-0.6C127.5,54.2,127.1,54.1,126.7,54.1z"/>
				<path class="st0" d="M143.9,62c0-0.1,0-0.3-0.1-0.3c-0.1,0-0.3,0-0.4,0h-8.6v-0.3c0.4,0,0.6-0.1,0.6-0.3v-7.8
					c0-0.1-0.1-0.3-0.6-0.3v-0.3h3.1v0.3c-0.3,0-0.6,0.1-0.6,0.3v6.8h6c0.1,0,0.3,0,0.4-0.1s0.1-0.1,0.1-0.3h0.3v2.4h-0.1V62z"/>
				<path class="st0" d="M151.7,52.5c0.7,0,1.4,0.1,2.1,0.3c0.7,0.1,1.3,0.4,1.8,0.8c0.6,0.4,1,0.8,1.4,1.4s0.6,1.3,0.6,2.1
					s-0.1,1.5-0.6,2.1s-0.8,1.1-1.4,1.4c-0.6,0.4-1.3,0.7-1.8,0.8c-0.7,0.1-1.4,0.3-2.1,0.3c-0.7,0-1.4-0.1-2.1-0.3
					c-0.7-0.1-1.3-0.4-1.8-0.8s-1-0.8-1.4-1.4c-0.4-0.6-0.6-1.3-0.6-2.1s0.1-1.5,0.6-2.1c0.4-0.6,0.8-1.1,1.4-1.4
					c0.6-0.4,1.3-0.7,1.8-0.8C150.3,52.5,151,52.5,151.7,52.5z M151.7,54.1c-0.4,0-1,0.1-1.4,0.1c-0.4,0.1-0.8,0.3-1.3,0.6
					c-0.4,0.3-0.7,0.6-0.8,1c-0.3,0.4-0.3,0.8-0.3,1.3c0,0.4,0.1,1,0.3,1.3c0.3,0.4,0.6,0.7,0.8,1c0.4,0.3,0.8,0.4,1.3,0.6
					c0.4,0.1,1,0.1,1.4,0.1c0.4,0,1-0.1,1.4-0.1c0.4-0.1,0.8-0.3,1.3-0.6c0.4-0.3,0.7-0.6,0.8-1c0.3-0.4,0.3-0.8,0.3-1.3
					c0-0.4-0.1-1-0.3-1.3c-0.3-0.4-0.6-0.7-0.8-1c-0.4-0.3-0.8-0.4-1.3-0.6C152.5,54.2,152.1,54.1,151.7,54.1z"/>
				<path class="st0" d="M168.8,55.3l-0.4-0.1c0-0.1,0-0.1,0-0.1c0-0.1-0.1-0.3-0.3-0.4c-0.3-0.1-0.6-0.3-0.8-0.4s-0.7-0.1-1.1-0.3
					c-0.4,0-0.8-0.1-1.1-0.1c-0.4,0-0.8,0-1.4,0.1c-0.4,0.1-0.8,0.3-1.1,0.6c-0.3,0.3-0.6,0.6-0.8,1c-0.3,0.4-0.3,0.8-0.3,1.5
					c0,0.6,0.1,1,0.3,1.4c0.3,0.4,0.4,0.7,0.8,1c0.3,0.3,0.7,0.4,1.1,0.6c0.4,0.1,0.8,0.1,1.4,0.1c0.7,0,1.3,0,1.8-0.1
					c0.6-0.1,1-0.3,1.4-0.4v-1.1H166c-0.1,0-0.3,0-0.4,0.1c-0.1,0-0.1,0.3-0.1,0.4h-0.3v-2.2h0.3c0,0.1,0.1,0.3,0.1,0.4
					c0.1,0,0.1,0.1,0.4,0.1h4.4v0.3c-0.3,0-0.4,0.1-0.4,0.1s-0.1,0.1-0.1,0.3v1.8c0,0.1,0,0.1,0.1,0.3c0.1,0,0.1,0.1,0.3,0.1v0.3
					c-0.4,0.3-0.8,0.4-1.3,0.7c-0.4,0.1-0.8,0.3-1.4,0.4c-0.4,0.1-0.8,0.1-1.4,0.1c-0.4,0-0.8,0-1.4,0c-0.8,0-1.7-0.1-2.4-0.3
					c-0.7-0.1-1.3-0.6-1.8-0.8c-0.6-0.4-0.8-0.8-1.1-1.4c-0.3-0.6-0.4-1.3-0.4-1.9s0.1-1.4,0.4-1.9s0.7-1.1,1.1-1.4
					c0.6-0.4,1.1-0.7,1.8-1c0.7-0.3,1.4-0.3,2.4-0.3c0.6,0,1,0,1.5,0.1c0.4,0,1,0.1,1.3,0.3c0.4,0.1,0.7,0.1,1,0.3
					c0.3,0.1,0.4,0.1,0.4,0.1c0.1,0,0.1,0,0.3-0.1l0.1-0.1l0.3,0.1L168.8,55.3z"/>
				<path class="st0" d="M173.1,61.3c0.3,0,0.4-0.1,0.4-0.3v-7.8c0-0.1-0.1-0.3-0.4-0.3v-0.3h3.1v0.3c-0.3,0-0.4,0.1-0.4,0.3V61
					c0,0.1,0.1,0.3,0.4,0.3v0.3h-3.1V61.3z"/>
				<path class="st0" d="M188.1,54.5c0-0.1,0-0.3-0.1-0.3c-0.1,0-0.3-0.1-0.6-0.1h-5.8v2.1h3.5c0.3,0,0.4,0,0.6-0.1
					c0.1,0,0.1-0.3,0.1-0.6h0.3v2.6h-0.3c0-0.3,0-0.4-0.1-0.6c-0.1-0.1-0.3-0.1-0.6-0.1h-3.5v2.4h6c0.1,0,0.3,0,0.4-0.1
					s0.1-0.1,0.1-0.3h0.3v2.4h-0.1c0-0.1,0-0.3-0.1-0.3s-0.3,0-0.4,0h-8.3v-0.3c0.1,0,0.1,0,0.3-0.1c0,0,0.1-0.1,0.1-0.3v-7.8
					c0-0.1,0-0.1-0.1-0.3c0,0-0.1-0.1-0.3-0.1v-0.3h8.2c0.3,0,0.4,0,0.6-0.1c0.1-0.1,0.1-0.1,0.1-0.3h0.3v2.2h-0.4V54.5z"/>
				<path class="st0" d="M191.9,58.8l0.1,0.1c0,0.1,0,0.1,0.1,0.3c0.1,0.1,0.3,0.3,0.6,0.4s0.6,0.3,0.8,0.4c0.3,0.1,0.7,0.1,1,0.3
					c0.4,0,0.7,0.1,1,0.1c0.1,0,0.4,0,0.8,0c0.3,0,0.7-0.1,1-0.1c0.3-0.1,0.6-0.3,0.8-0.4c0.3-0.1,0.3-0.4,0.3-0.7
					c0-0.3-0.1-0.4-0.3-0.6c-0.1-0.1-0.4-0.3-0.8-0.3c-0.3,0-0.7-0.1-1.1-0.1c-0.4,0-0.8,0-1.4-0.1c-0.4,0-1-0.1-1.4-0.1
					c-0.4-0.1-0.8-0.3-1.1-0.4s-0.6-0.4-0.8-0.8c-0.3-0.3-0.3-0.7-0.3-1.3c0-0.4,0.1-0.7,0.3-1.1c0.1-0.3,0.4-0.7,0.8-1
					c0.4-0.3,0.8-0.4,1.4-0.7c0.6-0.1,1.3-0.3,1.9-0.3s1.3,0,1.7,0.1s0.8,0.1,1.3,0.3c0.3,0.1,0.7,0.1,0.8,0.3
					c0.3,0.1,0.4,0.1,0.6,0.1c0.1,0,0.3,0,0.4-0.1l0.3,0.1l-1.3,2.1h-0.1c0-0.1-0.1-0.3-0.1-0.4c-0.1-0.1-0.3-0.3-0.4-0.4
					c-0.3-0.1-0.4-0.3-0.8-0.4c-0.3-0.1-0.6-0.1-1-0.3c-0.4,0-0.7-0.1-1.1-0.1c-0.3,0-0.6,0-0.8,0c-0.3,0-0.6,0.1-0.8,0.1
					c-0.3,0.1-0.4,0.1-0.6,0.3c-0.1,0.1-0.3,0.3-0.3,0.6c0,0.3,0.1,0.4,0.3,0.6c0.1,0.1,0.4,0.3,0.8,0.3c0.3,0.1,0.7,0.1,1.1,0.1
					c0.4,0,0.8,0,1.4,0.1c0.4,0,1,0.1,1.4,0.1c0.4,0.1,0.8,0.3,1.1,0.4s0.6,0.4,0.8,0.7c0.3,0.3,0.3,0.7,0.3,1.3s-0.1,1.1-0.6,1.4
					c-0.3,0.4-0.7,0.7-1.3,0.8c-0.6,0.3-1,0.4-1.5,0.4c-0.6,0.1-1.1,0.1-1.5,0.1c-0.7,0-1.3,0-1.7-0.1c-0.4-0.1-0.8-0.1-1.1-0.3
					c-0.3-0.1-0.6-0.1-0.7-0.3c-0.1-0.1-0.3-0.1-0.4-0.1s-0.1,0-0.3,0.1l-0.3-0.1L191.9,58.8z"/>
				<path class="st0" d="M208.6,61.6v-0.3c0.4,0,0.7-0.1,0.7-0.3v-7.8c0-0.1-0.3-0.3-0.7-0.3v-0.3h6.4c1.1,0,2.1,0.1,2.8,0.6
					c0.7,0.4,1,1.1,1,2.1c0,1-0.3,1.7-1,2.1c-0.7,0.4-1.5,0.6-2.8,0.6h-3.6V61c0,0.1,0.1,0.3,0.6,0.3v0.3
					C211.9,61.6,208.6,61.6,208.6,61.6z M215.1,56.4c0.4,0,0.7-0.1,1-0.3s0.4-0.4,0.4-0.8c0-0.4-0.1-0.7-0.4-0.8s-0.6-0.3-1-0.3
					h-3.9v2.2H215.1z"/>
				<path class="st0" d="M230.8,52.9c-0.3,0-0.4,0.1-0.6,0.3c-0.1,0.1-0.1,0.3-0.3,0.4l-3.2,6.7c-0.1,0.3-0.1,0.4-0.3,0.6
					c-0.1,0.1-0.1,0.3-0.1,0.3v0.1c0,0,0,0.1,0.1,0.1v0.3h-2.8v-0.3c0.1,0,0.1-0.1,0.1-0.3c0,0,0-0.1-0.1-0.4
					c-0.1-0.1-0.1-0.4-0.3-0.7l-3.2-6.7c0-0.1-0.1-0.3-0.3-0.3c-0.1,0-0.3-0.1-0.4-0.1v-0.3h3.2v0.3c-0.1,0-0.1,0-0.3,0
					c-0.1,0-0.1,0.1-0.1,0.3c0,0.1,0,0.3,0.1,0.4c0.1,0.1,0.3,0.4,0.4,0.7l2.4,4.7l2.2-4.6c0.1-0.3,0.3-0.6,0.4-0.8
					c0.1-0.3,0.1-0.4,0.1-0.6c0-0.1-0.1-0.3-0.6-0.3v-0.3h3.2v0.4H230.8z"/>
				<path class="st0" d="M237.7,61c0,0.1,0.1,0.3,0.4,0.3v0.3h-2.8v-0.3c0.1,0,0.1,0,0.3-0.1c0,0,0.1-0.1,0.1-0.3v-6.7h-3.1
					c-0.1,0-0.3,0-0.3,0.1c-0.1,0-0.1,0.1-0.1,0.3H232v-2.4h0.3c0,0.1,0,0.3,0.1,0.3c0.1,0,0.1,0.1,0.3,0.1h8.1c0.1,0,0.3,0,0.3-0.1
					c0.1,0,0.1-0.1,0.1-0.3h0.3v2.4h-0.3c0-0.1,0-0.3-0.1-0.3s-0.1-0.1-0.3-0.1h-2.9V61H237.7z"/>
				<path class="st0" d="M258,62c0-0.1,0-0.3-0.1-0.3c-0.1,0-0.3,0-0.4,0h-8.6v-0.3c0.4,0,0.6-0.1,0.6-0.3v-7.8
					c0-0.1-0.1-0.3-0.6-0.3v-0.3h3.1v0.3c-0.3,0-0.6,0.1-0.6,0.3v6.8h6c0.1,0,0.3,0,0.4-0.1c0.1-0.1,0.1-0.1,0.1-0.3h0.3v2.4H258V62
					z"/>
				<path class="st0" d="M265.3,61c0,0.1,0.1,0.3,0.4,0.3v0.3h-2.8v-0.3c0.1,0,0.1,0,0.3-0.1c0,0,0.1-0.1,0.1-0.3v-6.7h-2.9
					c-0.1,0-0.3,0-0.3,0.1c-0.1,0-0.1,0.1-0.1,0.3h-0.3v-2.4h0.3c0,0.1,0,0.3,0.1,0.3c0.1,0,0.1,0.1,0.3,0.1h8.1
					c0.1,0,0.3,0,0.3-0.1c0.1,0,0.1-0.1,0.1-0.3h0.3v2.4h-0.3c0-0.1,0-0.3-0.1-0.3c-0.1,0-0.1-0.1-0.3-0.1h-2.9V61H265.3z"/>
				<path class="st0" d="M277.1,52.5c0.7,0,1.3,0.1,1.8,0.3c0.6,0.1,1.1,0.4,1.5,0.8c0.4,0.4,0.7,0.8,1,1.4c0.3,0.6,0.4,1.3,0.4,1.9
					c0,0.8-0.1,1.4-0.4,1.9c-0.3,0.6-0.6,1-1,1.4c-0.4,0.4-1,0.7-1.5,0.8c-0.6,0.1-1.3,0.3-1.8,0.3h-6v-0.3c0.3,0,0.4-0.1,0.4-0.3
					v-7.8c0-0.1-0.1-0.3-0.4-0.3v-0.3H277.1z M276.4,60.2c0.6,0,1.1,0,1.5-0.1s0.8-0.3,1.1-0.6c0.3-0.3,0.4-0.6,0.6-1
					c0.1-0.4,0.1-0.8,0.1-1.5c0-0.6-0.1-1.1-0.1-1.5c-0.1-0.4-0.3-0.7-0.6-1c-0.3-0.3-0.7-0.4-1.1-0.6c-0.4-0.1-1-0.1-1.5-0.1h-2.8
					v6.1h2.8V60.2z"/>
				<path class="st0" d="M284.2,60.5c0-0.3,0.1-0.6,0.4-0.8c0.3-0.3,0.6-0.4,0.8-0.4c0.4,0,0.7,0.1,0.8,0.4c0.3,0.3,0.4,0.6,0.4,0.8
					s-0.1,0.6-0.4,0.8c-0.3,0.3-0.6,0.3-0.8,0.3c-0.4,0-0.7-0.1-0.8-0.3C284.3,61.1,284.2,60.9,284.2,60.5z"/>
			</g>
		</g>
		<g>
			<path class="st1" d="M12.4,54.6C12.5,54.6,12.5,54.6,12.4,54.6c1.9,0,4,0,6,0c0.4,0,1.1,0,1.5-0.4c0.8-1,1.9-1.4,3.3-1.3
				c0.1,0,0.4-0.1,0.4-0.3c0.1-0.1,0.4-0.4,0.4-0.7c0-0.4-0.1-0.8-0.1-1.3c0-0.1-0.1-0.3-0.1-0.4v-0.1h-0.1c-0.1,0-0.1,0-0.3,0
				c-0.3,0-0.4,0.1-0.6,0.3c-0.1,0.1-0.3,0.4-0.3,0.7v0.1c-1.7,0.3-1.8,0.4-3.2,1.4h-0.1c-0.1,0.1-0.6,0.3-0.8,0.3
				c-2.8,0-5.8,0-8.8,0c-0.6,0-1-0.1-1.1-0.4c-0.3-0.3-0.4-0.8-0.3-1.4h0.1c0.3,0,0.4,0,0.7-0.1c0.3-0.1,0.4-0.3,0.7-0.4
				c0.1,0,0.1-0.1,0.3-0.1l0.3-0.1L10,50.2c-0.1,0-0.1-0.1-0.3-0.3c-0.3-0.1-0.4-0.4-0.7-0.4c-1-0.1-2.1-0.1-3.3,0
				c-0.3,0-0.4,0-0.6-0.1S5,49.1,5,48.8c0-0.7,0-1.4,0-2.1v-0.4c0-0.1,0-0.3,0-0.4c0-0.8-0.1-1.7,0.8-2.1c0.1-0.3,0.3-0.8,0.3-1.1
				c0-1.9,0-3.5,0-5c0-0.3-0.1-0.6-0.3-0.8c-0.3-0.3-0.8-0.3-1.3-0.1c-0.3,0-0.6,0.1-0.8,0.4c-0.1,0-0.3,0.1-0.4,0.1l-0.3,0.3
				l0.6,0.4c0.3,0.1,0.6,0.4,0.8,0.6c0,0,0,0,0.1,0.1c0,0,0,0,0.1,0.1v0.8c0,0.7,0,1.5,0,2.4c0,0.3,0,0.4-0.1,0.6
				c-0.1,0.1-0.3,0.1-0.6,0.1c-0.8,0-1.1-0.4-1.1-1.3c0-3.5,0-7,0-10.4c0-0.4,0-0.7,0.3-0.8C3.4,30,3.6,30,4.1,30c0.3,0,0.4,0,0.7,0
				H5c0,0.3,0,0.6,0,0.8c0,0.7,0,1.4,0,1.9C5,34,5.7,34.7,7,34.7c0.8,0,1.7,0,2.5,0h0.3c0.1,0,0.3,0,0.3,0c0.7,0,1.3,0,1.5,0.3
				c0.3,0.3,0.3,0.6,0.3,1.1c0,0.3,0.1,0.4,0.4,0.6c0.1,0,0.1,0.1,0.3,0.1l0.1,0.1l0.1-0.1c0-0.1,0.1-0.1,0.1-0.3
				c0.1-0.1,0.3-0.4,0.4-0.6c0-0.1,0-0.3,0-0.4v-0.1l0.1-0.1c0.3-0.3,0.7-0.7,1.1-0.7s1.1,0.3,1.1,0.3c0.1,1.3,0.1,2.2,0,3.1
				c-0.1,0.3-0.7,0.8-1.3,1c-1,0.1-2.1,0.1-3.2,0h-0.1c-0.1,0-0.3-0.1-0.6-0.3c0,0-0.1,0-0.1-0.1c0,0,0,0,0.1-0.1
				c0.1-0.1,0.3-0.4,0.4-0.6c0.1-0.1,0.1-0.4,0.3-0.7c0-0.1,0-0.1,0.1-0.3l0.1-0.1h-0.3c-0.1,0-0.3,0-0.6-0.1
				c-0.4-0.1-0.8-0.1-1.3-0.1s-0.7,0.8-0.7,1.3c0,0.8,0,1.8,0,2.6c0,0.4,0,0.8,0,1.3c0,1,0,1.9,0,2.9v1.1c-0.1,0-0.3,0-0.4,0
				c-0.4,0-0.7,0-1,0c-0.3,0.1-0.6,0.3-0.7,0.4c-0.6,0.3-0.6,0.3-0.7,0.4l-0.3,0.1L6,46.7c0.1,0,0.1,0.1,0.3,0.3
				c0.3,0.1,0.6,0.4,0.8,0.4c2.1,0.3,3.6-0.3,4.6-1.7c0.7-1,1.7-1.4,3.2-1.4c0.8,0.1,1.7,0,2.5,0c0.4,0,0.7,0,1.1,0
				c1,0,1.4,0.1,1.7,0.4c0.3,0.3,0.3,0.7,0.1,1.5c0,0.3-0.3,0.7-0.6,1c-1.4,1.8-2.9,2.5-4.9,2.1c-0.1,0-0.3,0-0.3,0
				c-0.1,0-0.1,0-0.3,0c-0.3,0-0.6-0.1-0.8-0.3h-0.1c0-0.1,0-0.1,0.1-0.3c0.1-0.3,0.1-0.6,0.3-0.8c0.4-0.8,1.3-0.8,2.2-0.8h0.1
				c0.3,0,0.4-0.1,0.6-0.3c0.1,0,0.1-0.1,0.3-0.1l0.1-0.1L17,46.4c0,0-0.1-0.1-0.1-0.3c-0.1-0.3-0.3-0.4-0.4-0.4l0,0
				c-0.3,0-0.6,0-0.7,0c-0.8,0-1.7,0-2.4,0.4c-1.4,0.7-1.9,2.1-1.5,3.5c0.1,0.4,0.6,1.1,1,1.1s0.7,0,1.1,0.1
				c1.4,0.1,2.9,0.3,4.3-0.1c2.1-0.4,3.8-3.5,3.6-5.6c0-1.5-0.8-2.4-2.4-2.4c-1.7,0-3.5,0-5.4,0l0,0c-0.6,0-0.8-0.1-0.8-0.7
				c0-0.3-0.1-0.4-0.4-0.7c0-0.1-0.1-0.1-0.1-0.3L12.5,41l-0.1,0.1c0,0.1-0.1,0.1-0.3,0.3c-0.3,0.3-0.4,0.6-0.4,0.8
				c0.1,1.3-0.6,1.9-1.7,2.8c0-0.3,0-0.6,0-0.8c0-1.1,0-1.9,0-2.9c0-0.1,0.4-0.4,0.7-0.4c0.7,0,1.4,0,2.1,0c0.4,0,1,0,1.4,0
				c1.1,0,2.6-1,2.8-1.9c0.1-1,0.4-1.3,1.3-1.1l0,0c0.1,0,0.4-0.1,0.4-0.3c0.1-0.1,0.3-0.3,0.3-0.6c0-0.3-0.4-0.7-0.7-0.8
				C18,36,17.7,36,17.4,36h-0.1c-0.3-1.3-0.3-1.3,0.4-2.4c0.1-0.3,0.1-0.6,0.1-0.8c0-0.1,0-0.3,0-0.3v-0.3h-0.3c-0.1,0-0.1,0-0.3,0
				c-0.3,0-0.6,0-0.7,0.1c-1.1,1.4-2.9,0.6-4.6,1.1c-1,0.3-2.1,0.1-3.2,0c-0.4,0-1.1-0.1-1.7-0.1c-0.7,0-0.8-0.3-0.8-0.8
				c0-1.1,0-2.2,0-3.2c0-1,0-1.8,0-2.8c0-0.4,0-0.7,0-1.1c0-1-0.1-1.9,0.3-2.4c0.4-0.4,1.3-0.4,2.2-0.3c0.4,0,1,0,1.4,0
				c0.6,0,0.8,0,1.1,0.3c0.3,0.3,0.3,0.6,0.3,1.3c0,1.1,0,2.2,0,3.3c0,0.3,0.1,0.4,0.4,0.6l0.1,0.1l0.1,0.1l0.1-0.1
				c0,0,0.1-0.1,0.3-0.1c0.1-0.3,0.4-0.4,0.4-0.7c0-1.1,0-2.2,0-3.3c0-0.4,0-1,0-1.4c0-0.1,0-0.3,0-0.4c0-0.4,0-0.8,0-1.3
				c0.1-1.1,0.3-2.2-0.3-2.9c-0.4-0.4-1-0.6-1.8-0.4c-0.3,0-0.6,0.1-0.8,0.3c-0.1,0-0.3,0.1-0.3,0.1l-0.3,0.1l0.3,0.1
				c0.1,0.1,0.3,0.1,0.3,0.3c0.3,0.1,0.4,0.3,0.7,0.4c0.1,0,0.1,0.1,0.3,0.1c0.1,0.1,0.6,0.4,0.6,0.4c-0.1,0.6-0.4,1-0.7,1.1
				c-0.7,0.3-1.4,0.3-2.1,0.3c-0.3,0-0.4,0-0.7,0v-1.8c0-2.1,1-3.2,3.2-3.2c1.3,0,1.9-0.7,1.9-1.9c0-0.8,0-1.8,0-2.9
				c0-0.3,0-0.4,0.1-0.6c0.1-0.1,0.3-0.1,0.6-0.1c2.5,0,5,0,7.5,0c0.1,0,0.4,0.1,0.6,0.3c0,0.6,0,1.1,0,1.7c0.1,1.3,0.3,2.4-0.8,3.5
				c-0.1,0.1-0.1,0.4-0.1,0.7c0,0.1,0,0.3,0,0.3v0.1h0.1c0.1,0,0.1,0,0.3,0c0.3,0,0.6,0,0.7-0.1c0.8-0.7,1.7-1.4,1.5-2.8
				c-0.1-0.7,0-1.4,0-1.9c0-0.4,0-0.8,0-1.3c0-1.5-0.7-2.1-2.2-2.1c-2.6,0-5.1,0-7.6,0c-1.5-0.1-2.2,0.6-2.2,2.1c0,1,0,1.8,0,2.6
				c0,0.6-0.1,0.8-0.8,0.8h-0.3c-0.6,0-1.3,0-1.7,0.4c-1.5,1.1-2.8,2.4-2.4,4.4c0.1,0.4,0.1,0.8,0,1.1c-0.1,0.3-0.3,0.7-0.4,0.7
				c-1.3,0.4-1.4,1.5-1.4,2.2c0,0.4,0,0.8,0,1.3c0,0.8,0,1.7,0,2.4c0,0.6,0,1-0.3,1.1c-0.1,0.3-0.6,0.3-1.3,0.3
				c-0.8,0-1.4,0.1-1.7,0.4C1.1,29.2,1,29.6,1,30.6v2.1c0,2.8,0,5.8,0,8.6c0,0.7,0.4,1.8,1,2.2c1.4,0.7,1.4,1.7,1.3,2.8
				c0,0.7,0,1.3,0,1.9c0,0.3,0,0.6,0,0.7c0,1.9,0.1,2.1,2.1,2.1c0.7,0,1,0.3,1.3,1c0.4,1,1.4,2.2,2.4,2.5c1.1,0.3,1.3,0.6,1.3,1.7
				c0,1.4,0.6,1.9,1.9,1.9c0.1,0,0.3,0,0.4,0c0.3,0,0.6,0,0.8,0c0.3,0.1,0.6,0.3,0.7,0.6c0.7,1.9,2.1,3.1,4,3.1h0.6
				c0.1,0,0.4,0,0.6,0c0.4,0,0.7,0,1.1,0c2.1,0,3.5-1.3,3.5-3.5v-0.6c0-0.6,0-1.3,0-1.8c0-0.6-0.3-1-0.6-1.3c-0.4-0.3-0.8-0.3-1.4,0
				c-0.4,0.1-0.6,0.4-0.6,0.7c0,0.3,0.1,0.6,0.4,0.7c0.4,0.4,0.7,1,0.7,1.8s-0.3,1.5-0.8,1.9c-0.7,0.6-4.3,0.4-4.9-0.1l0,0
				c-0.3-0.3-0.6-0.4-0.7-0.7c-0.1-0.3-0.3-0.4-0.1-0.6c0-0.1,0.3-0.1,0.6-0.1c0.4,0,1,0,1.4,0h0.6c1,0,1.5,0,1.8-0.4
				c0.3-0.3,0.3-0.8,0.1-1.8c0-0.3-0.1-0.4-0.3-0.7c0-0.1-0.1-0.1-0.1-0.3l-0.1-0.1l-0.4,0.4c-0.1,0.1-0.3,0.4-0.6,0.6
				c-0.1,0.1-0.1,0.1-0.3,0.3c-0.1,0.1-0.4,0.4-0.6,0.4c-1.3,0-2.5,0-3.6,0c-0.6,0-1.3,0-1.8,0l0,0c-0.8,0-0.8-0.4-0.8-1v-0.1
				c0-0.3,0-0.6,0.1-0.6C12,54.6,12.1,54.6,12.4,54.6z"/>
			<path class="st1" d="M48.1,34.2c0-1.1,0-2.1,0-3.2c0-2.4-0.3-2.6-2.5-2.6c-0.8,0-1.1-0.3-1.1-1.1c0-0.8,0-1.7,0-2.4
				c0-0.6,0-1.3,0-1.8c0-0.8-0.3-1.4-1.3-1.8c-0.4-0.1-0.7-0.8-0.7-1.1c-0.1-0.3,0-0.4,0-0.7c0-0.1,0-0.3,0-0.4
				c0-2.6-1.7-4.3-4.2-4.4c-0.7,0-1-0.3-0.8-1c0-0.7,0-1.3,0-1.9c0-0.3,0-0.7,0-1c0-1.1-0.7-1.8-1.8-1.8c-2.8,0-5.6,0-8.2,0
				c-1.1,0-1.8,0.7-1.8,1.9c0,0.3,0,0.6,0,0.8c0,0.8,0,1.8,0,2.6c-0.1,1.1,0.3,1.9,1.3,2.6c0.3,0.1,0.6,0.1,0.8,0.3
				c0.1,0,0.3,0,0.3,0h0.3v-0.3c0-0.1,0-0.3,0-0.3c0-0.3,0-0.6-0.1-0.8c-0.1-0.3-0.3-0.4-0.4-0.7c-0.1-0.3-0.4-0.6-0.4-0.8
				c-0.1-0.7,0-1.3,0-1.9c0-0.3,0-0.7,0-1c0-0.3,0-0.6,0.1-0.7c0.1-0.1,0.3-0.1,0.6-0.1l0,0c2.4,0,4.9,0,7.2,0l0,0
				c0.3,0,0.4,0,0.6,0.1S36,11,36,11.4c0,0.7,0,1.5,0,2.5c0,1.7,0.6,2.1,2.2,2.2c0.6,0,1.3,0.3,1.7,0.6c1.4,0.8,1.3,2.1,1.1,3.5
				c0,0.3,0,0.6,0,1c-0.3,0-0.4,0-0.7,0c-0.7,0-1.3,0-1.9,0c-0.3,0-0.7-0.4-0.7-0.7c-0.1-0.3-0.1-0.7,0-0.8c0.1-0.3,0.6-0.3,0.8-0.3
				c0.3,0,0.4-0.1,0.7-0.4c0.1-0.1,0.1-0.1,0.3-0.1l0.1-0.1l-0.1-0.1c-0.1,0-0.1-0.1-0.3-0.1c-0.1-0.1-0.4-0.4-0.7-0.4
				c-1.1-0.1-1.8,0-2.2,0.6c-0.4,0.6-0.6,1.4-0.3,2.8c0,0.1,0.1,0.3,0.1,0.4c0.1,0.3,0.1,0.4,0.1,0.6c0,0.7,0,1.4-0.1,2.1
				c0,1-0.1,1.8-0.1,2.8c0,0.3,0.3,0.6,0.4,0.7c0.1,0.1,0.1,0.1,0.3,0.3l0.1,0.3l0.1-0.3c0-0.1,0.1-0.1,0.1-0.3
				c0.1-0.3,0.3-0.4,0.3-0.7c0-0.8,0-1.7,0-2.5c0-0.3,0-0.6,0-0.8c0-0.4,0.1-0.7,0.3-0.8c0.1-0.1,0.4-0.3,0.8-0.3c1.3,0,2.2,0,3.3,0
				c0.4,0,0.6,0,0.7,0.1c0.1,0.1,0.3,0.4,0.1,0.7c0,2.9,0,5.8,0,8.8c0,0.7-0.3,1-1,1c-1.1,0-2.2,0.1-3.3,0.3c-0.6,0-1.1,0.1-1.7,0.1
				h-0.1h-0.1c-0.3,0-0.4-0.1-0.7-0.1c-0.4-0.1-1-0.1-1.4-0.3c-0.3-0.1-0.7-0.1-1-0.3c-0.3-0.1-0.6-0.3-1-0.3
				c-0.3,0-0.6-0.1-0.7-0.1c-0.1,0-0.3,0-0.3,0h-0.3v0.3c0,0.1,0,0.1,0,0.3c0,0.3,0,0.6,0.1,0.7c0.7,0.6,0.7,1.3,0.6,1.9
				c0,0.1,0,0.1,0,0.3l-2.1,1.3l2.1,1c0.7,2.4,1.4,2.8,4.2,2.8c0.3,0,0.4,0,0.7,0c0.6,0,1.1,0,1.7,0c0.3,0,0.6,0.3,0.7,0.4
				c0,1,0,1.8,0,2.9c0,0.3,0,0.6,0,0.8c-0.1-0.1-0.3-0.3-0.4-0.4c-0.7-0.6-1.1-1-1.1-1.8c0-0.4-0.1-0.7-0.3-1.1
				c0-0.1-0.1-0.3-0.1-0.4L37,41.1l-0.3,0.4c-0.1,0.3-0.4,0.7-0.6,1c0,0,0,0-0.1,0.1l-0.1,0.1h-1.7c-1.5,0-2.9,0-4.4,0
				c-1.3,0-2.1,0.7-2.2,1.9c-0.1,1.3-0.1,2.9,1.4,4.2c0.3,0.1,0.6,0.4,0.7,0.7c0.3,0.3,0.4,0.6,0.7,0.7c0.3,0.3,0.8,0.6,1.5,0.7
				c1.1,0.1,2.2,0,3.3,0h0.6c1.1,0,1.8-0.7,1.9-1.9c0-0.8-0.3-1.7-0.8-2.2c-0.7-0.7-1.5-1.1-2.5-1.1c0,0,0,0-0.1,0
				c-0.6,0-1.4,0.3-1.7,0.6c0,0-0.1,0.1,0,0.1c0,0.3,0.1,0.6,0.3,0.7c0.3,0.3,0.6,0.1,1,0.1c0.1,0,0.3,0,0.4,0
				c0.6,0,1.1,0.3,1.4,0.7c0.3,0.4,0.4,0.8,0.4,1.5c-0.3,0-0.6,0-0.8,0c-0.8,0-1.7,0-2.5,0c-0.4,0-1,0-1.3-0.3
				c-0.8-0.7-1.5-1.3-2.1-2.1c-0.4-0.6-0.3-1.5-0.1-2.1c0-0.1,0.7-0.4,1.4-0.4c0.6,0,1.1,0,1.7,0c0.6,0,1.3,0,1.8,0
				c1.8-0.1,2.9,0.3,3.8,1.5c1.1,1.7,2.8,1.5,4.4,1.5h0.1c0.3,0,0.4-0.3,0.6-0.4c0-0.1,0.1-0.1,0.1-0.3l0.1-0.1l-0.1-0.1
				c-0.1,0-0.1-0.1-0.3-0.1c-0.1-0.1-0.4-0.4-0.6-0.4c-0.4-0.1-0.7,0-1.1,0c-0.1,0-0.3,0-0.4,0v-1.7c0-0.6,0-1,0-1.5
				c0-1.5,0-3.2,0-4.9c0-0.4-0.6-1-0.8-1c-0.4,0-0.8,0.1-1.1,0.3c-0.1,0-0.3,0.1-0.4,0.1l-0.3-0.4l0.1,0.1c0.1,0.1,0.1,0.1,0.3,0.3
				c0.1,0.1,0.3,0.4,0.4,0.6c0.1,0.1,0.3,0.6,0.3,0.7S39,39,38.7,39h-0.4c-1.1,0-2.1,0.1-3.2,0c-0.4,0-1.1-0.6-1.1-0.8
				c-0.1-0.7,0-1.7,0-2.5c0-0.3,0-0.4,0-0.7c0,0,0.1-0.1,0.3-0.3c0.6-0.1,1-0.1,1.4,0c0.4,0.3,0.7,0.7,0.7,1.3
				c0,0.3,0.1,0.6,0.4,0.7c0,0.1,0.1,0.1,0.1,0.3l0.1,0.3l0.1-0.3c0-0.1,0.1-0.1,0.3-0.3c0.1-0.3,0.4-0.6,0.4-0.8
				c0-0.8,0.4-1.1,1.3-1.1l0,0c0.4,0,0.7,0,1.1,0c0.8,0,1.7,0,2.5,0h0.1c0.6,0,1-0.1,1.4-0.4c0.3-0.3,0.4-0.7,0.4-1.4
				c0-0.3,0-0.4,0-0.7c0-0.4,0-0.8,0-1.3c0-0.6,0-0.8,0.1-1c0.1-0.1,0.4-0.3,0.8-0.1c1,0,1.1,0.3,1.1,1.1c0,2.1,0,4.2,0,6.1
				c0,1.3,0,2.5,0,3.9c0,0.7-0.1,1.1-0.4,1.3c-0.3,0.1-0.7,0.1-1.5,0v-3.9c0.1,0,0.3-0.1,0.4-0.1c0.3,0,0.7-0.1,0.8-0.4
				c0.1-0.3,0-0.4-0.3-0.8c-0.3-0.4-1.4-0.4-1.8-0.3c-0.4,0-0.7,0.7-0.7,1.1c0,0.8,0,1.7,0,2.4c0,0.4,0,0.8,0,1.3c0,1,0,1.9,1.1,2.5
				c0.1,0,0.1,0.3,0.1,0.6v0.1c0,1.3,0,2.6,0,3.9c0,0.1-0.4,0.6-0.7,0.6c-1.1,0.1-2.2,0-3.2,0.1c-0.3,0-0.6,0.3-0.8,0.4
				c-0.3,0.4-0.3,0.4-0.4,0.6l-0.3,0.1l0.6,0.3c0.3,0.1,0.6,0.3,0.7,0.4c0.1,0,0.3,0.1,0.4,0.1s0.4,0.1,0.4,0.1c0,0.3,0,0.8-0.3,1
				c-0.4,0.3-1,0.7-1.4,0.7c-2.8,0.1-5.6,0.1-8.2,0c-0.4,0-0.8-0.1-1.1-0.4c-0.1-0.1-0.4-0.1-0.6-0.3c-0.1-0.1-0.4-0.1-0.6-0.3
				c-0.4-0.1-0.8-0.4-1.4-0.6c-0.1,0-0.1,0-0.3,0c-0.4-0.1-0.7-0.1-0.7-0.7c0-0.3-0.3-0.3-0.7-0.4c-0.1,0-0.3,0-0.4-0.1L25.3,50v0.3
				c0,0.1,0,0.4,0,0.6c0,0.4-0.1,1,0,1.4c0.1,0.4,0.8,0.6,1.3,0.6c1.1-0.1,1.8,0.3,2.5,1c0.4,0.4,1.3,0.7,1.8,0.7c1.7,0,3.2,0,4.9,0
				c0.6,0,1.1,0,1.7,0c0.1,1,0.3,1.5,0,1.7c-0.1,0.3-0.7,0.3-1.5,0.3c-1.3,0-2.6,0-4.2,0c-0.4,0-0.8,0-1-0.1
				c-0.1-0.1-0.1-0.3-0.1-0.7c0-0.3-0.3-0.3-0.7-0.6c-0.1,0-0.3-0.1-0.3-0.1l-0.3-0.1V55c0,0.1,0,0.4,0,0.6c0,0.6-0.1,1,0,1.5
				c0,0.4,0.8,0.7,1.1,0.7c0.6,0,1.1,0,1.5,0c0.4,0,0.7,0,1.1,0c0.3,0,0.4,0.1,0.6,0.1c0,0.1,0,0.3-0.1,0.6
				c-0.6,0.7-1.1,1.4-2.1,1.3c-0.7-0.1-1.4-0.1-2.4,0c-0.8,0-1.4-0.3-1.8-1.1c-0.4-0.7,0-2.5,0.6-2.9c0.1-0.1,0.4-0.6,0.4-0.8
				c-0.1-0.3-0.4-0.6-0.7-0.6c-0.6-0.1-1-0.1-1.3,0.1c-0.3,0.3-0.4,0.7-0.6,1.3c0,0.7,0,1.4,0,2.1v0.3c0,2.2,1.3,3.5,3.5,3.5
				c0.4,0,1,0,1.4,0s0.7,0,1.1,0c1.4,0,3.2-1.3,3.5-2.5c0.1-1.1,0.7-1.1,1.5-1.1c1,0,1.7,0,2.1-0.4c0.4-0.4,0.4-1.1,0.4-1.9
				c0-0.4,0-0.7,0.1-0.8c0.1-0.1,0.3-0.1,0.7-0.1l0,0c0.6,0,1.4-0.4,1.9-1c0.4-0.4,0.7-0.8,0.7-1.3c0-0.6,0.1-0.8,0.3-1.1
				c0.3-0.3,0.8-0.3,1.4-0.3s0.8,0,1.1-0.3c0.3-0.3,0.4-0.6,0.4-1.1c0-1.4,0-2.9,0-4.4c0-0.3,0.3-0.8,0.7-1c0.8-0.6,1.5-1.3,1.5-2.6
				C48.1,39,48.1,36.7,48.1,34.2z"/>
			<path class="st1" d="M18,26.4c0.4,0,0.7,0,0.7,0.3c0.1,0.1,0.1,0.4,0.1,0.7c0,0.6,0,1.3,0,1.8c0,0.3,0.3,0.4,0.4,0.6l0.1,0.1
				l0.1,0.1l0.1-0.1l0.1-0.1c0.1-0.1,0.3-0.3,0.4-0.6c0-0.4,0-0.8,0-1.3c0-0.1,0-0.3,0-0.4l0.4-0.1c0.1,0.1,0.3,0.3,0.4,0.6
				c0.4,0.4,0.7,1,1.1,1.4c0.3,0.3,0.7,0.4,1,0.3c0.1,0,0.4-0.3,0.4-0.8c0-1.3-0.1-2.5-0.4-3.6c0-0.3-0.3-0.4-0.6-0.6
				c-0.1,0-0.1-0.1-0.3-0.1l-0.1-0.1L22,24.6c0,0.1-0.1,0.1-0.1,0.3c-0.1,0.3-0.3,0.6-0.3,0.8c0,0.4,0.1,0.7,0.1,1
				c0,0.1,0,0.1,0,0.3l-0.3,0.1c-0.1-0.1-0.1-0.3-0.3-0.4c-0.3-0.4-0.6-0.8-1-1.1c-0.3-0.3-0.8-0.7-1.4-0.7
				c-1.7-0.1-2.5-0.1-3.1,0.3c-0.6,0.4-0.7,1.3-0.7,2.9c0,1-1.3,2.1-2.2,2.2c-0.4,0-1,0-1.4,0c-0.6,0-1.1,0-1.7,0
				c-0.3,0-0.4,0-0.6-0.1c-0.1-0.1-0.1-0.3-0.1-0.6c0-0.4,0-0.7,0-1.1c0-0.7,0-1.4,0-1.9c0.1-1-0.3-1.7-1.1-2.2
				c-0.1-0.1-0.4-0.1-0.7-0.1c-0.1,0-0.1,0-0.3,0H6.7v0.3c0,0.1,0,0.1,0,0.3c0,0.3,0,0.6,0.1,0.7c0.7,0.6,0.7,1.3,0.7,2.1v0.3
				c0,0.3,0,0.7,0,1c0,1.5,0,2.4,0.4,2.9C9.1,32,10.3,32,12.4,32c1.7,0,2.8-0.4,3.8-1.5c1-1.1,1.1-2.2,1-3.1c0-0.4,0-0.6,0.1-0.7
				C17.4,26.4,17.7,26.4,18,26.4z"/>
			<path class="st1" d="M37.7,30.3h-0.1h-0.3c-1.1,0-1.9,0-2.8-1c-0.6-0.7-0.6-1.3-0.6-1.9c0-0.1,0-0.3,0-0.4
				c-0.1-1.5-0.6-1.9-1.9-2.1c-1.4-0.1-2.9,0-4,1.5c-0.1,0.1-0.3,0.3-0.4,0.4c0,0-0.1,0-0.1,0.1v-0.1c0.1-0.4,0.1-0.6,0.1-0.8
				s-0.1-0.6-0.1-0.8c0-0.1,0-0.3-0.1-0.4l-0.1-0.3l-0.3,0.3c-0.1,0.1-0.1,0.1-0.3,0.3c-0.3,0.3-0.6,0.4-0.6,0.8
				c-0.3,0.6-0.4,1.5-0.4,2.5c0,0.3,0.3,1,0.6,1c0.4,0.1,0.8-0.1,1.1-0.4c0.4-0.3,0.8-0.7,1.3-1.1c0.1-0.1,0.3-0.3,0.3-0.3
				c0,0.1,0,0.3,0,0.3c0,0.6,0,0.8,0.1,1.3c0,0.3,0.3,0.4,0.4,0.6c0.1,0,0.1,0.1,0.3,0.1l0.1,0.1l0.1-0.1l0.1-0.1
				c0.1-0.1,0.4-0.3,0.4-0.6c0.1-0.6,0-1.3,0-1.8c0-0.4,0-0.7,0.1-0.8c0.1,0,0.3,0,0.6,0l0,0c0.4,0,0.7,0.1,0.8,0.3
				c0.1,0.1,0.1,0.4,0.1,0.7s0,0.6,0,0.7v0.3c0,1.5,1.9,3.6,3.3,3.6c0.6,0,1.3,0,1.8,0c0.7,0,1.4,0,2.1,0c1.1,0,1.8-0.7,1.8-1.8
				c0-0.4,0-0.7,0-1.1c0-0.7,0-1.3,0-1.9c0-0.4,0.1-0.7,0.4-1.1c0.1-0.3,0.1-0.4,0.3-0.7s0.1-0.6,0.1-0.7c0-0.1,0-0.3,0-0.3V24h-0.3
				c-0.1,0-0.3,0-0.4,0c-0.3,0-0.6,0-0.8,0.1c-1.3,0.7-1.1,1.9-1.1,2.9c0,0.3,0,0.6,0,0.8v0.1C39.6,30.1,39.6,30.3,37.7,30.3z"/>
			<path class="st1" d="M26.4,22.2c1.1,0.7,2.2,1,3.3,1c0.3,0,0.6,0,0.8,0s0.4,0,0.7,0c0.6,0,1,0,1.5-0.1c0.6-0.1,1.3-0.7,1.5-1.3
				c0.4-0.7,0.7-1.5,0.8-2.4v-0.1c0.1-0.3,0-0.6,0-0.8c0-0.1,0-0.3,0-0.3v-0.3l-0.3,0.1c-0.1,0-0.1,0-0.3,0.1
				c-0.3,0-0.6,0.1-0.7,0.4c-0.3,0.6-0.6,1-0.7,1.5c-0.1,0.3-0.3,0.6-0.4,0.8l-0.1,0.1c0,0.1-0.1,0.4-0.3,0.6
				c-1.5-0.1-3.1-0.1-4.6-0.4c-0.1,0-0.3-0.4-0.4-0.6c0-0.1-0.1-0.1-0.1-0.3c0,0,0.1,0,0.1-0.1c0.3-0.1,0.6-0.3,0.7-0.3
				c1.9,0.3,3.5-0.4,4.7-2.1c0.1-0.1,0.3-0.3,0.4-0.4c0.1-0.1,0.1-0.1,0.3-0.3c0.8-0.8,1.1-2.8,0.7-3.8c-0.4-1-1.3-1-2.1-1
				c-0.1,0-0.3,0-0.4,0c-0.1,0-0.3,0-0.4,0h-0.1c-1,0-1.5,0.3-1.9,0.7c-0.4,0.4-0.4,1.1-0.4,1.9c0,0.3,0.3,0.6,0.4,0.7
				c0.1,0.1,0.1,0.1,0.3,0.3l0.1,0.3l0.1-0.3c0-0.1,0.1-0.1,0.1-0.3c0.1-0.3,0.3-0.4,0.4-0.7c0.1-0.1,0.1-0.4,0.1-0.7
				c0-0.1,0-0.3,0-0.3c0.6,0,1.1,0,1.5,0c0.1,0,0.3,0,0.4,0c0,0.1,0,0.4,0,0.6c0,0.6,0,1-0.3,1.3c-1.1,1.5-2.4,2.8-4.6,2.2
				c-0.1,0-0.1,0-0.3,0h-0.1c0,0,0,0-0.1,0c-1,0-1.7,0.4-1.8,1.3v0.3C25.5,20.6,25.3,21.5,26.4,22.2z"/>
			<path class="st1" d="M23.1,18.6c-0.4-0.3-1-0.3-1.5-0.3c-2.4,0.4-3.6-1-4.7-2.4c-0.3-0.4-0.3-1.1-0.3-1.7c0.1-0.1,0.7-0.1,1-0.3
				h0.1c0.4-0.1,0.7,0,1,0.1c0.1,0.1,0.3,0.6,0.3,1c0,0.4,0.4,0.8,0.6,0.8c0.1,0.1,0.1,0,0.3,0c0.1,0,0.6-0.1,0.6-0.3
				c0.4-0.6,0.4-1.4,0-2.1c-0.4-0.7-1.1-1.3-1.8-1.3c-0.4,0-0.8,0-1.1,0c-0.1,0-0.3,0-0.4,0c-0.7,0-1.7,0-1.9,1
				c-0.3,1.1-0.6,2.4,0.4,3.5c1.5,1.7,3.1,3.5,5.8,2.9c0.1,0,0.3,0.1,0.6,0.3c0,0,0.1,0,0.1,0.1c0,0,0,0.1-0.1,0.1
				c-0.1,0.3-0.3,0.4-0.4,0.6c-1.1,0.7-2.2,0.6-3.5,0.6c-0.4,0-1-0.1-1.4,0c0,0-0.1-0.1-0.3-0.6c-0.1-0.3-0.3-0.6-0.4-0.8
				c-0.3-0.6-0.4-1.1-0.7-1.7c-0.1-0.3-0.4-0.3-0.7-0.4c-0.1,0-0.3,0-0.3-0.1l-0.3-0.1v0.3c0,0.1,0,0.3,0,0.3c0,0.3,0,0.6,0,0.8
				c0.1,0.3,0.3,0.6,0.4,0.8c0.1,0.4,0.3,0.7,0.4,1.1c0.3,1.4,0.7,1.9,2.2,1.9c0.3,0,0.7,0,1,0h0.3l0.1,0.4l1.3-0.4
				c0.8-0.3,1.8-0.6,2.6-0.8c1.5-0.6,1.3-1.9,1.1-2.6C23.7,19.2,23.4,18.9,23.1,18.6z"/>
			<path class="st1" d="M19.8,32L19.8,32c-0.4,0-0.6,0.1-0.8,0.4c-0.1,0.1-0.1,0.1-0.3,0.3l-0.1,0.1l0.1,0.1c0.1,0,0.1,0.1,0.3,0.3
				s0.4,0.4,0.7,0.4c0.4,0.1,0.8,0.3,1.1,0.3c0.1,0,0.1,0,0.3,0L20.9,34c0,0.1-0.1,0.3-0.3,0.4c-0.1,0.4-0.4,0.7-0.4,1.1
				c-0.1,1.4,0,2.8,0,3.9c0,0.3,0.1,0.4,0.3,0.7c0,0.1,0.1,0.1,0.1,0.3l0.1,0.3l0.1-0.1c0-0.1,0.1-0.1,0.3-0.3
				c0.1-0.3,0.4-0.4,0.4-0.7c0-0.7,0-1.4,0-2.1c0-0.4,0-0.7,0-1.1c0-0.8,0.4-1.3,1.3-1.3l0,0c0.4,0,1,0,1.4,0c0.6,0,1,0,1.5,0
				c1.3,0,1.5,0.3,1.5,1.5c0,0.4,0,0.7,0,1.1c0,0.7,0,1.4,0,2.1c0,0.3,0.3,0.4,0.4,0.6l0.1,0.1l0.1,0.1l0.1-0.1l0.1-0.1
				c0.3-0.1,0.4-0.3,0.4-0.6c0-0.6,0-1.1,0-1.7c0.1-1.3,0.1-2.5-0.6-3.6c0.3-0.3,0.3-0.6,0.3-0.7s0.3-0.3,0.6-0.4c0.1,0,0.3,0,0.4,0
				s0.4,0,0.6,0c0.3-0.1,0.4-0.3,0.6-0.4c0-0.1,0.1-0.1,0.1-0.3l0.1-0.1l-0.1-0.1l-0.1-0.1c-0.1-0.1-0.3-0.4-0.6-0.4h-0.1
				c-0.8-0.1-1.8-0.1-2.4,0.7c-0.4,0.6-0.8,0.7-1.7,0.7c-0.7,0-1.3,0-1.8,0c-0.7,0-1.4-0.1-1.9-0.7C21.3,32.2,20.5,32.1,19.8,32z"/>
			<path class="st1" d="M25.5,46.4c0-0.3,0-0.7,0-1c0-0.1,0-0.3,0-0.3c0-0.7,0-1.1,0.7-1.1c0.1,0,0.3-0.1,0.4-0.4c0,0,0-0.1,0.1-0.1
				v-0.1v-0.1c0,0,0-0.1-0.1-0.1c-0.1-0.1-0.1-0.3-0.3-0.3c-0.8-0.1-0.8-0.7-0.8-1.4c0-0.1,0-0.3,0-0.4c0-0.3,0-0.7,0-1
				c0-0.6,0-1.1,0-1.7c0-0.3-0.3-0.6-0.4-0.8c-0.1-0.1-0.1-0.1-0.1-0.3L24.8,37l-0.1,0.3c-0.1,0.1-0.1,0.1-0.3,0.3
				c-0.3,0.3-0.4,0.6-0.4,0.8c0,0.6,0,1.1,0,1.5c0,0.7,0,1.3,0,1.9c0,0.3-0.3,0.4-0.4,0.7c-0.3,0.3-0.4,0.6-0.4,0.8
				c0,0.3,0.3,0.7,0.4,1c0.1,0.3,0.4,0.4,0.4,0.7c0.1,0.6,0.1,1.3,0,1.8c0,0.6,0,1,0,1.5c0,0.3,0.3,0.6,0.4,0.8
				c0.1,0.1,0.1,0.3,0.3,0.4l0.1,0.3l0.1-0.3c0-0.1,0.1-0.3,0.3-0.3c0.1-0.3,0.4-0.6,0.4-0.8C25.5,47.7,25.5,47,25.5,46.4z"/>
		</g>
	</g>
	<g>
		<g>
			<path class="st0" d="M294.2,9.3h-1.5v3.1h-1.4V4.3h2.9c1,0,1.7,0.3,2.2,0.7c0.6,0.4,0.7,1,0.7,1.8c0,0.6-0.1,1-0.4,1.4
				c-0.3,0.4-0.7,0.7-1.1,0.8l1.8,3.3v0.1h-1.5L294.2,9.3z M292.7,8h1.4c0.4,0,0.8-0.1,1.1-0.4c0.3-0.3,0.4-0.6,0.4-1
				c0-0.4-0.1-0.8-0.4-1c-0.3-0.1-0.6-0.4-1.1-0.4h-1.5V8H292.7z"/>
		</g>
		<g>
			<path class="st0" d="M293.9,15.4c-3.9,0-7.1-3.2-7.1-7.1s3.2-7.1,7.1-7.1s7.1,3.2,7.1,7.1S297.9,15.4,293.9,15.4z M293.9,2.1
				c-3.3,0-6.1,2.8-6.1,6.1s2.8,6.1,6.1,6.1s6.1-2.8,6.1-6.1S297.4,2.1,293.9,2.1z"/>
		</g>
	</g>
</g>
</svg>
